<svg xmlns="http://www.w3.org/2000/svg" viewBox="0 0 200 480" fill="none">
  <g opacity="0.85">
    <!-- Woman in saree with phone -->
    <ellipse cx="96" cy="474" rx="36" ry="6" fill="#D5D9E8"/>
    <!-- Feet -->
    <path d="M68 454 Q64 460 66 468 Q68 476 76 476 L88 476 Q94 476 94 468 L90 454" fill="#F2D1B3"/>
    <path d="M102 454 Q98 460 100 468 Q102 476 110 476 L122 476 Q128 476 128 468 L124 454" fill="#F2D1B3"/>
    <!-- Anklets -->
    <circle cx="80" cy="454" r="2.5" fill="#FFD700"/>
    <circle cx="112" cy="454" r="2.5" fill="#FFD700"/>
    <!-- Saree bottom -->
    <path d="M60 260 L54 454 L128 454 L122 260" fill="#E8680C"/>
    <path d="M72 290 L68 430" stroke="#C45500" strokeWidth="1" opacity="0.3"/>
    <path d="M84 290 L80 430" stroke="#C45500" strokeWidth="1" opacity="0.3"/>
    <path d="M96 290 L92 430" stroke="#C45500" strokeWidth="1" opacity="0.3"/>
    <!-- Saree border bottom -->
    <rect x="54" y="440" width="74" height="14" rx="2" fill="#FFA942"/>
    <path d="M54 448 L128 448" stroke="#FFD700" strokeWidth="1"/>
    <!-- Blouse -->
    <path d="M64 118 Q64 106 78 100 L114 100 Q128 106 128 118 L128 152 L64 152 Z" fill="#8B1A1A"/>
    <path d="M78 100 Q96 112 114 100" stroke="#6B1010" strokeWidth="1.5" fill="none"/>
    <!-- Saree torso -->
    <path d="M60 150 L60 268 L122 268 L122 150" fill="#E8680C"/>
    <path d="M60 228 Q91 220 122 228" stroke="#C45500" strokeWidth="1.2" fill="none" opacity="0.3"/>
    <!-- Pallu -->
    <path d="M114 108 Q136 122 140 168 Q142 218 134 268 L150 268 Q156 218 154 168 Q152 122 132 102 Z" fill="#FFA942" opacity="0.8"/>
    <path d="M134 268 L150 268" stroke="#FFD700" strokeWidth="3"/>
    <!-- Arms -->
    <path d="M58 120 L44 126 Q34 132 30 146 L24 234 Q24 244 32 246 L42 246 Q50 244 50 234 L56 152" fill="#F2D1B3"/>
    <path d="M134 120 L144 126 Q152 132 156 146 L162 218 Q162 226 156 228 L148 228 Q142 226 142 218 L134 152" fill="#F2D1B3"/>
    <!-- Hands -->
    <path d="M24 234 Q18 240 20 250 Q24 260 32 258 L42 258 Q50 258 50 248 Q50 240 42 234" fill="#F2D1B3"/>
    <path d="M142 218 Q136 224 138 234 Q142 242 150 240 L158 240 Q164 240 164 232 Q164 224 158 218" fill="#F2D1B3"/>
    <!-- Phone -->
    <rect x="16" y="242" width="22" height="36" rx="4" fill="#1a1f30"/>
    <rect x="18" y="246" width="18" height="26" rx="3" fill="#3B82F6" opacity="0.45"/>
    <!-- Neck -->
    <rect x="84" y="74" width="24" height="30" rx="5" fill="#F2D1B3"/>
    <!-- Necklace -->
    <path d="M72 104 Q96 116 120 104" stroke="#FFD700" strokeWidth="3" fill="none"/>
    <circle cx="96" cy="114" r="5" fill="#FFD700"/>
    <!-- Head -->
    <ellipse cx="96" cy="48" rx="32" ry="36" fill="#F2D1B3"/>
    <!-- Hair -->
    <path d="M62 42 Q62 12 96 6 Q130 12 130 42 Q130 32 96 24 Q62 32 62 42 Z" fill="#1a1f30"/>
    <ellipse cx="96" cy="12" rx="16" ry="12" fill="#1a1f30"/>
    <!-- Flowers -->
    <circle cx="78" cy="22" r="5" fill="white" opacity="0.8"/>
    <circle cx="84" cy="16" r="4" fill="white" opacity="0.7"/>
    <!-- Face -->
    <circle cx="96" cy="32" r="4" fill="#C0392B"/>
    <path d="M76 40 Q82 36 88 40" stroke="#4A3020" strokeWidth="2" fill="none" strokeLinecap="round"/>
    <path d="M104 40 Q110 36 116 40" stroke="#4A3020" strokeWidth="2" fill="none" strokeLinecap="round"/>
    <path d="M74 48 Q82 42 90 48 Q82 52 74 48 Z" fill="white"/>
    <path d="M102 48 Q110 42 118 48 Q110 52 102 48 Z" fill="white"/>
    <circle cx="82" cy="48" r="3.5" fill="#3D2B1F"/>
    <circle cx="110" cy="48" r="3.5" fill="#3D2B1F"/>
    <circle cx="83" cy="47" r="1.2" fill="white"/>
    <circle cx="111" cy="47" r="1.2" fill="white"/>
    <path d="M73 48 Q72 50 70 48" stroke="#1a1f30" strokeWidth="1"/>
    <path d="M119 48 Q120 50 122 48" stroke="#1a1f30" strokeWidth="1"/>
    <path d="M92 52 Q96 60 100 52" stroke="#DDAF90" strokeWidth="1.2" fill="none"/>
    <circle cx="92" cy="58" r="2.5" fill="none" stroke="#FFD700" strokeWidth="1.5"/>
    <path d="M86 66 Q96 62 106 66" stroke="#C07060" strokeWidth="1.8" fill="#D88878" opacity="0.45"/>
    <path d="M86 66 Q96 72 106 66" stroke="#C07060" strokeWidth="1.5" fill="#C87868" opacity="0.35"/>
    <!-- Earrings -->
    <path d="M62 52 L58 66 L66 66 Z" fill="#FFD700"/>
    <path d="M130 52 L126 66 L134 66 Z" fill="#FFD700"/>
  </g>
</svg>
